<svg xmlns="http://www.w3.org/2000/svg" viewBox="0 0 1280 720"><defs><style>.cls-1,.cls-2{fill:none;}.cls-2{stroke:#000;stroke-miterlimit:10;}</style></defs><g id="レイヤー_2" data-name="レイヤー 2"><g id="レイヤー_1-2" data-name="レイヤー 1"><rect class="cls-1" width="1280" height="720"/><path class="cls-2" d="M268,163.67,222.58,85.08c-.88-1.77-1.81-3.53-2.82-5.27C193.11,33.65,132.76,18.58,85,46.17S20.07,133.55,46.73,179.72l.09.16-.17.1,48.27,83.59"/><path class="cls-2" d="M94.92,263.57l1.41-2.74a32.24,32.24,0,0,1,30.11-17.39l3.08.15,3.08.15a32.26,32.26,0,0,0,30.09-17.34l1.44-2.79,1.65-3.16a32.24,32.24,0,0,1,30-17.17l3.3.16,3.08.15a32.27,32.27,0,0,0,30.12-17.4l1.4-2.73c.35-.68.79-1.53,1.28-2.5a32.27,32.27,0,0,1,30.14-17.43l2.85.14"/><path class="cls-2" d="M1160.65,696.39,1206,617.8q1.65-2.47,3.16-5.07c26.65-46.17,9.53-106-38.26-133.55s-108.12-12.52-134.78,33.64l-.09.17-.17-.1-48.27,83.59"/><path class="cls-2" d="M987.61,596.48l3.09-.15a32.27,32.27,0,0,1,30.11,17.39l1.41,2.74,1.41,2.74a32.26,32.26,0,0,0,30.07,17.39l3.13-.14,3.56-.16a32.27,32.27,0,0,1,29.88,17.4l1.51,2.93,1.41,2.75a32.24,32.24,0,0,0,30.12,17.38l3.07-.15,2.8-.14a32.24,32.24,0,0,1,30.16,17.39l1.31,2.54"/><path d="M440.72,397.88l-2.67,18.4s-28,0-37.69-31.3a29.67,29.67,0,0,1-10.67,1.89c-13,0-24.51-9.12-24.51-25.28,0-15.83,14.34-25.29,24.51-25.29a26.23,26.23,0,0,1,7.34,1.21V315.84H371.51V297.26H397V288h18v9.29h19v18.58H415V360.9C415,397.71,440.72,397.88,440.72,397.88Zm-44.53-36.29a6.43,6.43,0,1,0-6.5,6.71A6.62,6.62,0,0,0,396.19,361.59Zm60.37-33.71,7.17,32.68-17.51,4.12L439.05,332Z"/><path d="M580.63,309.82l-43.19-3.27L538.78,288,582,291.24Zm12.84,67.59c0,24.94-18.34,47.47-56,35.78l2.84-18.41c25.18,7.91,35-3.61,35-17.37,0-13.41-10.51-22.53-33.35-21.33V323.4h18v16.17C580.3,343.36,593.47,358.32,593.47,377.41Z"/><path d="M670.35,362.45l18-1.55c3.34,30.44,18.85,34.06,33.35,37.15L718,416.28C696.7,411.81,673.69,401.49,670.35,362.45ZM709,325.12H671.69V306.55H709V288h18v18.58h18.84v18.57H727.05V365H709Z"/><path d="M899.48,411.81c-20.18,9.63-35.85,4.13-45.19-19.43-6.5-16.52-18-10.15-19-5l-5.17,28.89H811.77L834.28,288h18.34l-13,74.82c11.17-1.72,24.51,4.47,30.84,21.5,4.67,12.56,10,16.68,24,9.63Z"/></g></g></svg>